<svg width="17" height="14" viewBox="0 0 17 14" fill="none" xmlns="http://www.w3.org/2000/svg">
<g id="Component 16">
<path id="Vector" d="M17 4H16V1.5C16 1.2 15.8 1 15.5 1H1.5C1.2 1 1 1.2 1 1.5V4H0V1.5C0 0.65 0.65 0 1.5 0H15.5C16.35 0 17 0.65 17 1.5V4Z" fill="#DDDDDD"/>
<path id="Vector_2" d="M14.5 14H2.5C1.65 14 1 13.35 1 12.5V4H2V12.5C2 12.8 2.2 13 2.5 13H14.5C14.8 13 15 12.8 15 12.5V4H16V12.5C16 13.35 15.35 14 14.5 14Z" fill="#DDDDDD"/>
<path id="Vector_3" d="M10.5 7H6.5C6.2 7 6 6.8 6 6.5C6 6.2 6.2 6 6.5 6H10.5C10.8 6 11 6.2 11 6.5C11 6.8 10.8 7 10.5 7Z" fill="#DDDDDD"/>
<path id="Vector_4" d="M0 3H17V4H0V3Z" fill="#DDDDDD"/>
</g>
</svg>
